<svg width="379" height="155" viewBox="0 0 379 155" fill="none" xmlns="http://www.w3.org/2000/svg">
<path d="M24.1364 124H3.04545L35.1818 30.9091H60.5455L92.6364 124H71.5455L48.2273 52.1818H47.5L24.1364 124ZM22.8182 87.4091H72.6364V102.773H22.8182V87.4091Z" fill="#3F51B5"/>
<path d="M108.091 124V30.9091H144.818C151.848 30.9091 157.848 32.1667 162.818 34.6818C167.818 37.1667 171.621 40.697 174.227 45.2727C176.864 49.8182 178.182 55.1667 178.182 61.3182C178.182 67.5 176.848 72.8182 174.182 77.2727C171.515 81.697 167.652 85.0909 162.591 87.4545C157.561 89.8182 151.47 91 144.318 91H119.727V75.1818H141.136C144.894 75.1818 148.015 74.6667 150.5 73.6364C152.985 72.6061 154.833 71.0606 156.045 69C157.288 66.9394 157.909 64.3788 157.909 61.3182C157.909 58.2273 157.288 55.6212 156.045 53.5C154.833 51.3788 152.97 49.7727 150.455 48.6818C147.97 47.5606 144.833 47 141.045 47H127.773V124H108.091ZM158.364 81.6364L181.5 124H159.773L137.136 81.6364H158.364Z" fill="#3F51B5"/>
<path d="M253.029 99.2922L279.192 114.395L266.424 122.119L254.62 115.514L234.67 126.574L190.535 101.407L190.193 50.1661L208.271 60.3365C200.969 70.9945 204.157 84.0934 206.664 89.3106C222.763 113.986 244.282 106.247 253.029 99.2922Z" fill="#3F51B5"/>
<path d="M214.163 54.2823L188 39.1794L200.768 31.4556L212.572 38.0607L232.522 27L276.658 52.1678L276.999 103.408L258.921 93.238C266.223 82.58 263.035 69.4811 260.528 64.2639C244.429 39.588 222.91 47.3279 214.163 54.2823Z" fill="#3F51B5"/>
<path d="M251.816 76.4535C251.749 66.3898 243.536 58.286 233.472 58.3531C223.409 58.4203 215.305 66.6329 215.372 76.6966C215.439 86.7603 223.652 94.8642 233.715 94.797C243.779 94.7299 251.883 86.5172 251.816 76.4535Z" fill="#3F51B5"/>
<path d="M307.136 124H286.045L318.182 30.9091H343.545L375.636 124H354.545L331.227 52.1818H330.5L307.136 124ZM305.818 87.4091H355.636V102.773H305.818V87.4091Z" fill="#3F51B5"/>
</svg>
