<svg width="424" height="489" viewBox="0 0 424 489" fill="none" xmlns="http://www.w3.org/2000/svg">
<path d="M423 423.5L359.5 466.5L306.5 431.5L213 488L1 360V116.5L89 167.5L76 200C65 262.5 76 284.5 85.5 301.5C108.983 352.963 148.943 370.299 168.957 378.982L169 379C215.5 399.173 273 381 301 356.5L423 423.5Z" fill="#3A4AA1" stroke="black"/>
<path d="M126.5 129L3.5 57L64 21L119.5 52.5L214 1L421.5 121V362.5L336.5 314C371.3 264 356.667 202.167 345 177.5C269.8 60.7 168 96.5 126.5 129Z" fill="#3A4AA1" stroke="black"/>
<circle cx="86.5" cy="86.5" r="86.5" transform="matrix(-1 0 0 1 300 156)" fill="#3A4AA1"/>
</svg>
