<svg width="487" height="155" viewBox="0 0 487 155" fill="none" xmlns="http://www.w3.org/2000/svg">
<path d="M24.1364 124H3.04545L35.1818 30.9091H60.5455L92.6364 124H71.5455L48.2273 52.1818H47.5L24.1364 124ZM22.8182 87.4091H72.6364V102.773H22.8182V87.4091Z" fill="#3F51B5"/>
<path d="M144.091 124V30.9091H180.818C187.848 30.9091 193.848 32.1667 198.818 34.6818C203.818 37.1667 207.621 40.697 210.227 45.2727C212.864 49.8182 214.182 55.1667 214.182 61.3182C214.182 67.5 212.848 72.8182 210.182 77.2727C207.515 81.697 203.652 85.0909 198.591 87.4545C193.561 89.8182 187.47 91 180.318 91H155.727V75.1818H177.136C180.894 75.1818 184.015 74.6667 186.5 73.6364C188.985 72.6061 190.833 71.0606 192.045 69C193.288 66.9394 193.909 64.3788 193.909 61.3182C193.909 58.2273 193.288 55.6212 192.045 53.5C190.833 51.3788 188.97 49.7727 186.455 48.6818C183.97 47.5606 180.833 47 177.045 47H163.773V124H144.091ZM194.364 81.6364L217.5 124H195.773L173.136 81.6364H194.364Z" fill="#3F51B5"/>
<path d="M325.029 99.2922L351.192 114.395L338.424 122.119L326.62 115.514L306.67 126.574L262.535 101.407L262.193 50.1661L280.271 60.3365C272.969 70.9945 276.157 84.0934 278.664 89.3106C294.763 113.986 316.282 106.247 325.029 99.2922Z" fill="#3F51B5"/>
<path d="M286.163 54.2823L260 39.1794L272.768 31.4556L284.572 38.0607L304.522 27L348.658 52.1678L348.999 103.408L330.921 93.238C338.223 82.58 335.035 69.4811 332.528 64.2639C316.429 39.588 294.91 47.3279 286.163 54.2823Z" fill="#3F51B5"/>
<path d="M323.816 76.4535C323.749 66.3898 315.536 58.286 305.472 58.3531C295.409 58.4203 287.305 66.6329 287.372 76.6966C287.439 86.7603 295.652 94.8642 305.715 94.797C315.779 94.7299 323.883 86.5172 323.816 76.4535Z" fill="#3F51B5"/>
<path d="M415.136 124H394.045L426.182 30.9091H451.545L483.636 124H462.545L439.227 52.1818H438.5L415.136 124ZM413.818 87.4091H463.636V102.773H413.818V87.4091Z" fill="#3F51B5"/>
</svg>
