<svg width="483" height="120" viewBox="0 0 483 120" fill="none" xmlns="http://www.w3.org/2000/svg">
<g clip-path="url(#clip0_463_12)">
<path d="M27.0586 64.0747L70.0935 107.11V107.11C64.831 112.372 56.2988 112.372 51.0363 107.11L17.53 73.6033L27.0586 64.0747Z" fill="#D9D9D9"/>
<path d="M17.1963 42.3297L46.4756 13.0504C51.7381 7.78789 60.2703 7.78789 65.5328 13.0504V13.0504L26.7249 51.8583L17.1963 42.3297Z" fill="#259393"/>
<path d="M48.0871 12.5286C53.3496 7.2661 61.8818 7.2661 67.1443 12.5286L101.154 46.538L91.6251 56.0666L48.0871 12.5286V12.5286Z" fill="#259393"/>
<rect x="24.5288" y="35.3051" width="64.4374" height="13.4755" transform="rotate(45 24.5288 35.3051)" fill="#259393"/>
<rect x="74.6768" y="56.1013" width="32.9238" height="13.4755" transform="rotate(45 74.6768 56.1013)" fill="#D9D9D9"/>
<rect x="39.1519" y="21.5225" width="41.1193" height="13.4755" transform="rotate(45 39.1519 21.5225)" fill="#259393"/>
<rect x="93.2896" y="83.512" width="36.8183" height="13.4755" transform="rotate(135 93.2896 83.512)" fill="#D9D9D9"/>
<path d="M127.775 98.765C123.242 98.765 119.162 97.7733 115.535 95.79C111.908 93.75 109.047 90.8883 106.95 87.205C104.91 83.5217 103.89 79.2717 103.89 74.455C103.89 69.6383 104.938 65.3883 107.035 61.705C109.188 58.0217 112.107 55.1883 115.79 53.205C119.473 51.165 123.582 50.145 128.115 50.145C132.648 50.145 136.757 51.165 140.44 53.205C144.123 55.1883 147.013 58.0217 149.11 61.705C151.263 65.3883 152.34 69.6383 152.34 74.455C152.34 79.2717 151.235 83.5217 149.025 87.205C146.872 90.8883 143.925 93.75 140.185 95.79C136.502 97.7733 132.365 98.765 127.775 98.765ZM127.775 88.395C129.928 88.395 131.94 87.885 133.81 86.865C135.737 85.7883 137.267 84.2017 138.4 82.105C139.533 80.0083 140.1 77.4583 140.1 74.455C140.1 69.9783 138.91 66.55 136.53 64.17C134.207 61.7333 131.345 60.515 127.945 60.515C124.545 60.515 121.683 61.7333 119.36 64.17C117.093 66.55 115.96 69.9783 115.96 74.455C115.96 78.9317 117.065 82.3883 119.275 84.825C121.542 87.205 124.375 88.395 127.775 88.395ZM168.294 35.1V98H156.394V35.1H168.294ZM195.011 87.035L206.911 50.91H219.576L202.151 98H187.701L170.361 50.91H183.111L195.011 87.035ZM265.36 73.435C265.36 75.135 265.247 76.665 265.02 78.025H230.595C230.878 81.425 232.068 84.0883 234.165 86.015C236.262 87.9417 238.84 88.905 241.9 88.905C246.32 88.905 249.465 87.0067 251.335 83.21H264.17C262.81 87.7433 260.203 91.4833 256.35 94.43C252.497 97.32 247.765 98.765 242.155 98.765C237.622 98.765 233.542 97.7733 229.915 95.79C226.345 93.75 223.54 90.8883 221.5 87.205C219.517 83.5217 218.525 79.2717 218.525 74.455C218.525 69.5817 219.517 65.3033 221.5 61.62C223.483 57.9367 226.26 55.1033 229.83 53.12C233.4 51.1367 237.508 50.145 242.155 50.145C246.632 50.145 250.627 51.1083 254.14 53.035C257.71 54.9617 260.458 57.71 262.385 61.28C264.368 64.7933 265.36 68.845 265.36 73.435ZM253.035 70.035C252.978 66.975 251.873 64.5383 249.72 62.725C247.567 60.855 244.932 59.92 241.815 59.92C238.868 59.92 236.375 60.8267 234.335 62.64C232.352 64.3967 231.133 66.8617 230.68 70.035H253.035ZM296.85 48.275V63.15H316.825V72.585H296.85V88.31H319.375V98H284.95V38.585H319.375V48.275H296.85ZM322.454 74.285C322.454 69.525 323.389 65.3033 325.259 61.62C327.186 57.9367 329.764 55.1033 332.994 53.12C336.281 51.1367 339.936 50.145 343.959 50.145C347.473 50.145 350.533 50.8533 353.139 52.27C355.803 53.6867 357.928 55.4717 359.514 57.625V50.91H371.499V98H359.514V91.115C357.984 93.325 355.859 95.1667 353.139 96.64C350.476 98.0567 347.388 98.765 343.874 98.765C339.908 98.765 336.281 97.745 332.994 95.705C329.764 93.665 327.186 90.8033 325.259 87.12C323.389 83.38 322.454 79.1017 322.454 74.285ZM359.514 74.455C359.514 71.565 358.948 69.1 357.814 67.06C356.681 64.9633 355.151 63.3767 353.224 62.3C351.298 61.1667 349.229 60.6 347.019 60.6C344.809 60.6 342.769 61.1383 340.899 62.215C339.029 63.2917 337.499 64.8783 336.309 66.975C335.176 69.015 334.609 71.4517 334.609 74.285C334.609 77.1183 335.176 79.6117 336.309 81.765C337.499 83.8617 339.029 85.4767 340.899 86.61C342.826 87.7433 344.866 88.31 347.019 88.31C349.229 88.31 351.298 87.7717 353.224 86.695C355.151 85.5617 356.681 83.975 357.814 81.935C358.948 79.8383 359.514 77.345 359.514 74.455ZM396.467 98.765C392.613 98.765 389.157 98.085 386.097 96.725C383.037 95.3083 380.6 93.41 378.787 91.03C377.03 88.65 376.067 86.015 375.897 83.125H387.882C388.108 84.9383 388.987 86.44 390.517 87.63C392.103 88.82 394.058 89.415 396.382 89.415C398.648 89.415 400.405 88.9617 401.652 88.055C402.955 87.1483 403.607 85.9867 403.607 84.57C403.607 83.04 402.813 81.9067 401.227 81.17C399.697 80.3767 397.232 79.5267 393.832 78.62C390.318 77.77 387.428 76.8917 385.162 75.985C382.952 75.0783 381.025 73.69 379.382 71.82C377.795 69.95 377.002 67.4283 377.002 64.255C377.002 61.6483 377.738 59.2683 379.212 57.115C380.742 54.9617 382.895 53.2617 385.672 52.015C388.505 50.7683 391.82 50.145 395.617 50.145C401.227 50.145 405.703 51.5617 409.047 54.395C412.39 57.1717 414.232 60.94 414.572 65.7H403.182C403.012 63.83 402.218 62.3567 400.802 61.28C399.442 60.1467 397.6 59.58 395.277 59.58C393.123 59.58 391.452 59.9767 390.262 60.77C389.128 61.5633 388.562 62.6683 388.562 64.085C388.562 65.6717 389.355 66.89 390.942 67.74C392.528 68.5333 394.993 69.355 398.337 70.205C401.737 71.055 404.542 71.9333 406.752 72.84C408.962 73.7467 410.86 75.1633 412.447 77.09C414.09 78.96 414.94 81.4533 414.997 84.57C414.997 87.29 414.232 89.7267 412.702 91.88C411.228 94.0333 409.075 95.7333 406.242 96.98C403.465 98.17 400.207 98.765 396.467 98.765ZM463.865 73.435C463.865 75.135 463.752 76.665 463.525 78.025H429.1C429.383 81.425 430.573 84.0883 432.67 86.015C434.767 87.9417 437.345 88.905 440.405 88.905C444.825 88.905 447.97 87.0067 449.84 83.21H462.675C461.315 87.7433 458.708 91.4833 454.855 94.43C451.002 97.32 446.27 98.765 440.66 98.765C436.127 98.765 432.047 97.7733 428.42 95.79C424.85 93.75 422.045 90.8883 420.005 87.205C418.022 83.5217 417.03 79.2717 417.03 74.455C417.03 69.5817 418.022 65.3033 420.005 61.62C421.988 57.9367 424.765 55.1033 428.335 53.12C431.905 51.1367 436.013 50.145 440.66 50.145C445.137 50.145 449.132 51.1083 452.645 53.035C456.215 54.9617 458.963 57.71 460.89 61.28C462.873 64.7933 463.865 68.845 463.865 73.435ZM451.54 70.035C451.483 66.975 450.378 64.5383 448.225 62.725C446.072 60.855 443.437 59.92 440.32 59.92C437.373 59.92 434.88 60.8267 432.84 62.64C430.857 64.3967 429.638 66.8617 429.185 70.035H451.54Z" fill="#259393"/>
</g>
<defs>
<clipPath id="clip0_463_12">
<rect width="483" height="120" fill="white"/>
</clipPath>
</defs>
</svg>
